# Blender v2.80 (sub 75) OBJ File: ''
# www.blender.org
v 0.000000 -0.020122 1.560574
v 0.000000 1.317869 1.560574
v -0.917282 -0.020122 1.262531
v -0.917282 1.317869 1.262531
v -1.484194 -0.020122 0.482244
v -1.484194 1.317869 0.482244
v -1.484194 -0.020122 -0.482244
v -1.484194 1.317869 -0.482244
v -0.917282 -0.020122 -1.262531
v -0.917282 1.317869 -1.262531
v 0.000000 -0.020122 -1.560574
v 0.000000 1.317869 -1.560574
v 0.917283 -0.020122 -1.262531
v 0.917283 1.317869 -1.262531
v 1.484194 -0.020122 -0.482244
v 1.484194 1.317869 -0.482244
v 1.484194 -0.020122 0.482244
v 1.484194 1.317869 0.482244
v 0.917282 -0.020122 1.262531
v 0.917282 1.317869 1.262531
v -0.670045 1.386694 0.922237
v -0.000000 1.386694 1.139948
v -1.084155 1.386694 0.352263
v -1.084155 1.386694 -0.352263
v -0.670045 1.386694 -0.922238
v 0.000000 1.386694 -1.139948
v 0.670045 1.386694 -0.922237
v 1.084155 1.386694 -0.352263
v 1.084155 1.386694 0.352264
v 0.670044 1.386694 0.922238
v -0.670045 0.906753 0.922237
v -0.000000 0.906753 1.139948
v -1.084155 0.906753 0.352263
v -1.084155 0.906753 -0.352263
v -0.670045 0.906753 -0.922238
v 0.000000 0.906753 -1.139948
v 0.670045 0.906753 -0.922237
v 1.084155 0.906753 -0.352263
v 1.084155 0.906753 0.352264
v 0.670044 0.906753 0.922238
v -0.468243 0.879594 0.644481
v -0.000000 0.879594 0.796622
v -0.757632 0.879594 0.246170
v -0.757632 0.879594 -0.246170
v -0.468243 0.879594 -0.644481
v 0.000000 0.879594 -0.796622
v 0.468243 0.879594 -0.644481
v 0.757632 0.879594 -0.246170
v 0.757632 0.879594 0.246170
v 0.468242 0.879594 0.644481
v -0.468243 0.347318 0.644481
v -0.000000 0.347318 0.796622
v -0.757632 0.347318 0.246170
v -0.757632 0.347318 -0.246170
v -0.468243 0.347318 -0.644481
v 0.000000 0.347318 -0.796622
v 0.468243 0.347318 -0.644481
v 0.757632 0.347318 -0.246170
v 0.757632 0.347318 0.246170
v 0.468242 0.347318 0.644481
vt 1.000000 0.500000
vt 1.000000 1.000000
vt 0.900000 1.000000
vt 0.900000 0.500000
vt 0.800000 1.000000
vt 0.800000 0.500000
vt 0.700000 1.000000
vt 0.700000 0.500000
vt 0.600000 1.000000
vt 0.600000 0.500000
vt 0.500000 1.000000
vt 0.500000 0.500000
vt 0.400000 1.000000
vt 0.400000 0.500000
vt 0.300000 1.000000
vt 0.300000 0.500000
vt 0.200000 1.000000
vt 0.200000 0.500000
vt 0.100000 1.000000
vt 0.200000 1.000000
vt 0.100000 1.000000
vt 0.100000 0.500000
vt -0.000000 1.000000
vt -0.000000 0.500000
vt 0.750000 0.490000
vt 0.891068 0.444164
vt 0.978254 0.324164
vt 0.978254 0.175836
vt 0.891068 0.055836
vt 0.750000 0.010000
vt 0.608932 0.055836
vt 0.521746 0.175836
vt 0.521746 0.324164
vt 0.608932 0.444164
vt 0.300000 1.000000
vt 0.400000 1.000000
vt 0.400000 1.000000
vt 0.300000 1.000000
vt 0.500000 1.000000
vt 0.600000 1.000000
vt 0.700000 1.000000
vt 1.000000 1.000000
vt 0.900000 1.000000
vt 0.800000 1.000000
vt -0.000000 1.000000
vt 0.600000 1.000000
vt 0.700000 1.000000
vt 0.700000 1.000000
vt 0.600000 1.000000
vt 1.000000 1.000000
vt 0.900000 1.000000
vt 0.200000 1.000000
vt 0.500000 1.000000
vt 0.800000 1.000000
vt 0.100000 1.000000
vt -0.000000 1.000000
vt 0.900000 1.000000
vt 1.000000 1.000000
vt 1.000000 1.000000
vt 0.900000 1.000000
vt 0.300000 1.000000
vt 0.200000 1.000000
vt 0.500000 1.000000
vt 0.800000 1.000000
vt 0.100000 1.000000
vt 0.400000 1.000000
vt -0.000000 1.000000
vt 0.391068 0.444164
vt 0.250000 0.490000
vt 0.108932 0.444164
vt 0.021746 0.324164
vt 0.021746 0.175836
vt 0.108932 0.055836
vt 0.250000 0.010000
vt 0.391068 0.055836
vt 0.478254 0.175836
vt 0.478254 0.324164
vt 0.300000 1.000000
vt 0.200000 1.000000
vt 0.600000 1.000000
vt 0.500000 1.000000
vt 0.800000 1.000000
vt 0.100000 1.000000
vt 0.400000 1.000000
vt 0.700000 1.000000
vt -0.000000 1.000000
vn -0.3090 0.0000 0.9511
vn -0.8090 0.0000 0.5878
vn -1.0000 0.0000 -0.0000
vn -0.8090 0.0000 -0.5878
vn -0.3090 0.0000 -0.9511
vn 0.3090 0.0000 -0.9511
vn 0.8090 0.0000 -0.5878
vn 1.0000 0.0000 0.0000
vn 0.1372 0.9855 0.0997
vn 0.8090 0.0000 0.5878
vn 0.3090 0.0000 0.9511
vn 0.0000 -1.0000 0.0000
vn 0.1696 0.9855 0.0000
vn 0.1372 0.9855 -0.0997
vn 0.0524 0.9855 -0.1613
vn -0.0524 0.9855 -0.1613
vn -0.1372 0.9855 -0.0997
vn -0.0524 0.9855 0.1613
vn -0.1696 0.9855 0.0000
vn -0.1372 0.9855 0.0997
vn 0.0524 0.9855 0.1613
vn 0.0671 0.9966 0.0487
vn 0.0256 0.9966 -0.0788
vn -0.0829 0.9966 0.0000
vn 0.0256 0.9966 0.0788
vn 0.0671 0.9966 -0.0487
vn -0.0671 0.9966 -0.0487
vn -0.0256 0.9966 0.0788
vn 0.0829 0.9966 0.0000
vn -0.0256 0.9966 -0.0788
vn -0.0671 0.9966 0.0487
vn 0.0000 1.0000 0.0000
s off
f 1/1/1 2/2/1 4/3/1 3/4/1
f 3/4/2 4/3/2 6/5/2 5/6/2
f 5/6/3 6/5/3 8/7/3 7/8/3
f 7/8/4 8/7/4 10/9/4 9/10/4
f 9/10/5 10/9/5 12/11/5 11/12/5
f 11/12/6 12/11/6 14/13/6 13/14/6
f 13/14/7 14/13/7 16/15/7 15/16/7
f 15/16/8 16/15/8 18/17/8 17/18/8
f 20/19/9 18/17/9 29/20/9 30/21/9
f 17/18/10 18/17/10 20/19/10 19/22/10
f 19/22/11 20/19/11 2/23/11 1/24/11
f 1/25/12 3/26/12 5/27/12 7/28/12 9/29/12 11/30/12 13/31/12 15/32/12 17/33/12 19/34/12
f 28/35/2 27/36/2 37/37/2 38/38/2
f 18/17/13 16/15/13 28/35/13 29/20/13
f 16/15/14 14/13/14 27/36/14 28/35/14
f 14/13/15 12/11/15 26/39/15 27/36/15
f 12/11/16 10/9/16 25/40/16 26/39/16
f 10/9/17 8/7/17 24/41/17 25/40/17
f 4/3/18 2/2/18 22/42/18 21/43/18
f 8/7/19 6/5/19 23/44/19 24/41/19
f 6/5/20 4/3/20 21/43/20 23/44/20
f 2/23/21 20/19/21 30/21/21 22/45/21
f 35/46/22 34/47/22 44/48/22 45/49/22
f 25/40/10 24/41/10 34/47/10 35/46/10
f 21/43/6 22/42/6 32/50/6 31/51/6
f 29/20/3 28/35/3 38/38/3 39/52/3
f 26/39/11 25/40/11 35/46/11 36/53/11
f 23/44/7 21/43/7 31/51/7 33/54/7
f 30/21/4 29/20/4 39/52/4 40/55/4
f 27/36/1 26/39/1 36/53/1 37/37/1
f 24/41/8 23/44/8 33/54/8 34/47/8
f 22/45/5 30/21/5 40/55/5 32/56/5
f 41/57/6 42/58/6 52/59/6 51/60/6
f 31/51/23 32/50/23 42/58/23 41/57/23
f 39/52/24 38/38/24 48/61/24 49/62/24
f 36/53/25 35/46/25 45/49/25 46/63/25
f 33/54/26 31/51/26 41/57/26 43/64/26
f 40/55/27 39/52/27 49/62/27 50/65/27
f 37/37/28 36/53/28 46/63/28 47/66/28
f 34/47/29 33/54/29 43/64/29 44/48/29
f 32/56/30 40/55/30 50/65/30 42/67/30
f 38/38/31 37/37/31 47/66/31 48/61/31
f 51/68/32 52/69/32 60/70/32 59/71/32 58/72/32 57/73/32 56/74/32 55/75/32 54/76/32 53/77/32
f 49/62/3 48/61/3 58/78/3 59/79/3
f 46/63/11 45/49/11 55/80/11 56/81/11
f 43/64/7 41/57/7 51/60/7 53/82/7
f 50/65/4 49/62/4 59/79/4 60/83/4
f 47/66/1 46/63/1 56/81/1 57/84/1
f 44/48/8 43/64/8 53/82/8 54/85/8
f 42/67/5 50/65/5 60/83/5 52/86/5
f 48/61/2 47/66/2 57/84/2 58/78/2
f 45/49/10 44/48/10 54/85/10 55/80/10
v -0.162987 -0.015599 -1.433908
v -0.162987 1.612624 -1.433908
v -0.162987 -0.015599 -1.622109
v -0.162987 1.612624 -1.622109
v 0.162987 -0.015599 -1.622109
v 0.162987 1.612624 -1.622109
v 0.162987 -0.015599 -1.433908
v 0.162987 1.612624 -1.433908
v 1.436710 -0.015599 -0.291731
v 1.436710 1.612624 -0.291731
v 1.291480 -0.015599 -0.406758
v 1.291480 1.612624 -0.406758
v 1.318482 -0.015599 -0.590044
v 1.318482 1.612624 -0.590044
v 1.490713 -0.015599 -0.658303
v 1.490713 1.612624 -0.658303
v 1.635943 -0.015599 -0.543276
v 1.635943 1.612624 -0.543276
v 1.608941 -0.015599 -0.359990
v 1.608941 1.612624 -0.359990
v 0.972829 -0.015599 -1.082782
v 0.972829 1.612624 -1.082782
v 0.792543 -0.015599 -1.104546
v 0.792543 1.612624 -1.104546
v 0.721247 -0.015599 -1.271561
v 0.721247 1.612624 -1.271561
v 0.830239 -0.015599 -1.416812
v 0.830239 1.612624 -1.416812
v 1.010525 -0.015599 -1.395048
v 1.010525 1.612624 -1.395048
v 1.081821 -0.015599 -1.228033
v 1.081821 1.612624 -1.228033
v 0.000000 -0.015599 -1.339808
v 0.000000 1.612624 -1.339808
v 0.162987 -0.015599 -1.433908
v 0.162987 1.612624 -1.433908
v 0.162987 -0.015599 -1.622109
v 0.162987 1.612624 -1.622109
v 0.000000 -0.015599 -1.716209
v 0.000000 1.612624 -1.716209
v -0.162987 -0.015599 -1.622109
v -0.162987 1.612624 -1.622109
v -0.162987 -0.015599 -1.433908
v -0.162987 1.612624 -1.433908
v -1.436710 -0.015599 -0.291731
v -1.436710 1.612624 -0.291731
v -1.291480 -0.015599 -0.406758
v -1.291480 1.612624 -0.406758
v -1.318482 -0.015599 -0.590044
v -1.318482 1.612624 -0.590044
v -1.490713 -0.015599 -0.658303
v -1.490713 1.612624 -0.658303
v -1.635943 -0.015599 -0.543276
v -1.635943 1.612624 -0.543276
v -1.608941 -0.015599 -0.359990
v -1.608941 1.612624 -0.359990
v -0.972829 -0.015599 -1.082782
v -0.972829 1.612624 -1.082782
v -0.792543 -0.015599 -1.104546
v -0.792543 1.612624 -1.104546
v -0.721247 -0.015599 -1.271561
v -0.721247 1.612624 -1.271561
v -0.830239 -0.015599 -1.416812
v -0.830239 1.612624 -1.416812
v -1.010525 -0.015599 -1.395048
v -1.010525 1.612624 -1.395048
v -1.081821 -0.015599 -1.228033
v -1.081821 1.612624 -1.228033
v -0.162987 -0.015599 1.433908
v -0.162987 1.612624 1.433908
v -0.162987 -0.015599 1.622109
v -0.162987 1.612624 1.622109
v 0.162987 -0.015599 1.622109
v 0.162987 1.612624 1.622109
v 0.162987 -0.015599 1.433908
v 0.162987 1.612624 1.433908
v 1.436710 -0.015599 0.291731
v 1.436710 1.612624 0.291731
v 1.291480 -0.015599 0.406758
v 1.291480 1.612624 0.406758
v 1.318482 -0.015599 0.590044
v 1.318482 1.612624 0.590044
v 1.490713 -0.015599 0.658303
v 1.490713 1.612624 0.658303
v 1.635943 -0.015599 0.543276
v 1.635943 1.612624 0.543276
v 1.608941 -0.015599 0.359990
v 1.608941 1.612624 0.359990
v 0.972829 -0.015599 1.082782
v 0.972829 1.612624 1.082782
v 0.792543 -0.015599 1.104546
v 0.792543 1.612624 1.104546
v 0.721247 -0.015599 1.271561
v 0.721247 1.612624 1.271561
v 0.830239 -0.015599 1.416812
v 0.830239 1.612624 1.416812
v 1.010525 -0.015599 1.395048
v 1.010525 1.612624 1.395048
v 1.081821 -0.015599 1.228033
v 1.081821 1.612624 1.228033
v 0.000000 -0.015599 1.339808
v 0.000000 1.612624 1.339808
v 0.162987 -0.015599 1.433908
v 0.162987 1.612624 1.433908
v 0.162987 -0.015599 1.622109
v 0.162987 1.612624 1.622109
v 0.000000 -0.015599 1.716209
v 0.000000 1.612624 1.716209
v -0.162987 -0.015599 1.622109
v -0.162987 1.612624 1.622109
v -0.162987 -0.015599 1.433908
v -0.162987 1.612624 1.433908
v -1.436710 -0.015599 0.291731
v -1.436710 1.612624 0.291731
v -1.291480 -0.015599 0.406758
v -1.291480 1.612624 0.406758
v -1.318482 -0.015599 0.590044
v -1.318482 1.612624 0.590044
v -1.490713 -0.015599 0.658303
v -1.490713 1.612624 0.658303
v -1.635943 -0.015599 0.543276
v -1.635943 1.612624 0.543276
v -1.608941 -0.015599 0.359990
v -1.608941 1.612624 0.359990
v -0.972829 -0.015599 1.082782
v -0.972829 1.612624 1.082782
v -0.792543 -0.015599 1.104546
v -0.792543 1.612624 1.104546
v -0.721247 -0.015599 1.271561
v -0.721247 1.612624 1.271561
v -0.830239 -0.015599 1.416812
v -0.830239 1.612624 1.416812
v -1.010525 -0.015599 1.395048
v -1.010525 1.612624 1.395048
v -1.081821 -0.015599 1.228033
v -1.081821 1.612624 1.228033
vt 1.000000 0.500000
vt 1.000000 1.000000
vt 0.833333 1.000000
vt 0.833333 0.500000
vt 0.666667 1.000000
vt 0.666667 0.500000
vt 0.500000 1.000000
vt 0.500000 0.500000
vt 0.333333 1.000000
vt 0.333333 0.500000
vt 0.457846 0.370000
vt 0.250000 0.490000
vt 0.042154 0.370000
vt 0.042154 0.130000
vt 0.250000 0.010000
vt 0.457846 0.130000
vt 0.166667 1.000000
vt 0.166667 0.500000
vt -0.000000 1.000000
vt -0.000000 0.500000
vt 0.750000 0.490000
vt 0.957846 0.370000
vt 0.957846 0.130000
vt 0.750000 0.010000
vt 0.542154 0.130000
vt 0.542154 0.370000
vt 1.000000 0.500000
vt 1.000000 1.000000
vt 0.833333 1.000000
vt 0.833333 0.500000
vt 0.666667 1.000000
vt 0.666667 0.500000
vt 0.500000 1.000000
vt 0.500000 0.500000
vt 0.333333 1.000000
vt 0.333333 0.500000
vt 0.457846 0.370000
vt 0.250000 0.490000
vt 0.042154 0.370000
vt 0.042154 0.130000
vt 0.250000 0.010000
vt 0.457846 0.130000
vt 0.166667 1.000000
vt 0.166667 0.500000
vt -0.000000 1.000000
vt -0.000000 0.500000
vt 0.750000 0.490000
vt 0.957846 0.370000
vt 0.957846 0.130000
vt 0.750000 0.010000
vt 0.542154 0.130000
vt 0.542154 0.370000
vt 1.000000 0.500000
vt 1.000000 1.000000
vt 0.833333 1.000000
vt 0.833333 0.500000
vt 0.666667 1.000000
vt 0.666667 0.500000
vt 0.500000 1.000000
vt 0.500000 0.500000
vt 0.333333 1.000000
vt 0.333333 0.500000
vt 0.457846 0.370000
vt 0.250000 0.490000
vt 0.042154 0.370000
vt 0.042154 0.130000
vt 0.250000 0.010000
vt 0.457846 0.130000
vt 0.166667 1.000000
vt 0.166667 0.500000
vt -0.000000 1.000000
vt -0.000000 0.500000
vt 0.750000 0.490000
vt 0.957846 0.370000
vt 0.957846 0.130000
vt 0.750000 0.010000
vt 0.542154 0.130000
vt 0.542154 0.370000
vt 0.833333 0.500000
vt 0.833333 1.000000
vt 0.666667 0.500000
vt 0.666667 1.000000
vt 0.333333 0.500000
vt 0.333333 1.000000
vt 0.457846 0.370000
vt 0.457846 0.130000
vt 0.042154 0.130000
vt 0.042154 0.370000
vt 0.166667 0.500000
vt 0.166667 1.000000
vt 0.542154 0.370000
vt 0.542154 0.130000
vt 0.957846 0.130000
vt 0.957846 0.370000
vt 1.000000 0.500000
vt 0.833333 0.500000
vt 0.833333 1.000000
vt 1.000000 1.000000
vt 0.666667 0.500000
vt 0.666667 1.000000
vt 0.500000 0.500000
vt 0.500000 1.000000
vt 0.333333 0.500000
vt 0.333333 1.000000
vt 0.457846 0.370000
vt 0.457846 0.130000
vt 0.250000 0.010000
vt 0.042154 0.130000
vt 0.042154 0.370000
vt 0.250000 0.490000
vt 0.166667 0.500000
vt 0.166667 1.000000
vt -0.000000 0.500000
vt -0.000000 1.000000
vt 0.750000 0.490000
vt 0.542154 0.370000
vt 0.542154 0.130000
vt 0.750000 0.010000
vt 0.957846 0.130000
vt 0.957846 0.370000
vt 1.000000 0.500000
vt 0.833333 0.500000
vt 0.833333 1.000000
vt 1.000000 1.000000
vt 0.666667 0.500000
vt 0.666667 1.000000
vt 0.500000 0.500000
vt 0.500000 1.000000
vt 0.333333 0.500000
vt 0.333333 1.000000
vt 0.457846 0.370000
vt 0.457846 0.130000
vt 0.250000 0.010000
vt 0.042154 0.130000
vt 0.042154 0.370000
vt 0.250000 0.490000
vt 0.166667 0.500000
vt 0.166667 1.000000
vt -0.000000 0.500000
vt -0.000000 1.000000
vt 0.750000 0.490000
vt 0.542154 0.370000
vt 0.542154 0.130000
vt 0.750000 0.010000
vt 0.957846 0.130000
vt 0.957846 0.370000
vt 1.000000 0.500000
vt 0.833333 0.500000
vt 0.833333 1.000000
vt 1.000000 1.000000
vt 0.666667 0.500000
vt 0.666667 1.000000
vt 0.500000 0.500000
vt 0.500000 1.000000
vt 0.333333 0.500000
vt 0.333333 1.000000
vt 0.457846 0.370000
vt 0.457846 0.130000
vt 0.250000 0.010000
vt 0.042154 0.130000
vt 0.042154 0.370000
vt 0.250000 0.490000
vt 0.166667 0.500000
vt 0.166667 1.000000
vt -0.000000 0.500000
vt -0.000000 1.000000
vt 0.750000 0.490000
vt 0.542154 0.370000
vt 0.542154 0.130000
vt 0.750000 0.010000
vt 0.957846 0.130000
vt 0.957846 0.370000
vt 1.000000 0.500000
vt 0.833333 0.500000
vt 0.833333 1.000000
vt 1.000000 1.000000
vt 0.666667 0.500000
vt 0.666667 1.000000
vt 0.500000 0.500000
vt 0.500000 1.000000
vt 0.333333 0.500000
vt 0.333333 1.000000
vt 0.457846 0.370000
vt 0.457846 0.130000
vt 0.250000 0.010000
vt 0.042154 0.130000
vt 0.042154 0.370000
vt 0.250000 0.490000
vt 0.166667 0.500000
vt 0.166667 1.000000
vt -0.000000 0.500000
vt -0.000000 1.000000
vt 0.750000 0.490000
vt 0.542154 0.370000
vt 0.542154 0.130000
vt 0.750000 0.010000
vt 0.957846 0.130000
vt 0.957846 0.370000
vt 1.000000 0.500000
vt 0.833333 0.500000
vt 0.833333 1.000000
vt 1.000000 1.000000
vt 0.666667 0.500000
vt 0.666667 1.000000
vt 0.500000 0.500000
vt 0.500000 1.000000
vt 0.333333 0.500000
vt 0.333333 1.000000
vt 0.457846 0.370000
vt 0.457846 0.130000
vt 0.250000 0.010000
vt 0.042154 0.130000
vt 0.042154 0.370000
vt 0.250000 0.490000
vt 0.166667 0.500000
vt 0.166667 1.000000
vt -0.000000 0.500000
vt -0.000000 1.000000
vt 0.750000 0.490000
vt 0.542154 0.370000
vt 0.542154 0.130000
vt 0.750000 0.010000
vt 0.957846 0.130000
vt 0.957846 0.370000
vt 0.833333 1.000000
vt 0.833333 0.500000
vt 0.666667 1.000000
vt 0.666667 0.500000
vt 0.333333 1.000000
vt 0.333333 0.500000
vt 0.457846 0.370000
vt 0.042154 0.370000
vt 0.042154 0.130000
vt 0.457846 0.130000
vt 0.166667 1.000000
vt 0.166667 0.500000
vt 0.957846 0.370000
vt 0.957846 0.130000
vt 0.542154 0.130000
vt 0.542154 0.370000
vt 1.000000 0.500000
vt 1.000000 1.000000
vt 0.833333 1.000000
vt 0.833333 0.500000
vt 0.666667 1.000000
vt 0.666667 0.500000
vt 0.500000 1.000000
vt 0.500000 0.500000
vt 0.333333 1.000000
vt 0.333333 0.500000
vt 0.457846 0.370000
vt 0.250000 0.490000
vt 0.042154 0.370000
vt 0.042154 0.130000
vt 0.250000 0.010000
vt 0.457846 0.130000
vt 0.166667 1.000000
vt 0.166667 0.500000
vt -0.000000 1.000000
vt -0.000000 0.500000
vt 0.750000 0.490000
vt 0.957846 0.370000
vt 0.957846 0.130000
vt 0.750000 0.010000
vt 0.542154 0.130000
vt 0.542154 0.370000
vt 1.000000 0.500000
vt 1.000000 1.000000
vt 0.833333 1.000000
vt 0.833333 0.500000
vt 0.666667 1.000000
vt 0.666667 0.500000
vt 0.500000 1.000000
vt 0.500000 0.500000
vt 0.333333 1.000000
vt 0.333333 0.500000
vt 0.457846 0.370000
vt 0.250000 0.490000
vt 0.042154 0.370000
vt 0.042154 0.130000
vt 0.250000 0.010000
vt 0.457846 0.130000
vt 0.166667 1.000000
vt 0.166667 0.500000
vt -0.000000 1.000000
vt -0.000000 0.500000
vt 0.750000 0.490000
vt 0.957846 0.370000
vt 0.957846 0.130000
vt 0.750000 0.010000
vt 0.542154 0.130000
vt 0.542154 0.370000
vn -0.5000 0.0000 0.8660
vn -1.0000 0.0000 -0.0000
vn -0.5000 0.0000 -0.8660
vn 0.5000 0.0000 -0.8660
vn 0.0000 1.0000 0.0000
vn 1.0000 0.0000 0.0000
vn 0.5000 0.0000 0.8660
vn 0.0000 -1.0000 0.0000
vn -0.6209 0.0000 0.7839
vn -0.9893 0.0000 -0.1457
vn -0.3684 0.0000 -0.9297
vn 0.6209 0.0000 -0.7839
vn 0.9893 0.0000 0.1457
vn 0.3684 0.0000 0.9297
vn -0.1198 0.0000 0.9928
vn -0.9197 0.0000 0.3926
vn -0.7999 0.0000 -0.6002
vn 0.1198 0.0000 -0.9928
vn 0.9197 0.0000 -0.3926
vn 0.7999 0.0000 0.6002
vn 0.6209 0.0000 0.7839
vn 0.9893 0.0000 -0.1457
vn 0.3684 0.0000 -0.9297
vn -0.6209 0.0000 -0.7839
vn -0.9893 0.0000 0.1457
vn -0.3684 0.0000 0.9297
vn 0.1198 0.0000 0.9928
vn 0.9197 0.0000 0.3926
vn 0.7999 0.0000 -0.6002
vn -0.1198 0.0000 -0.9928
vn -0.9197 0.0000 -0.3926
vn -0.7999 0.0000 0.6002
s off
f 93/87/33 94/88/33 62/89/33 61/90/33
f 61/90/34 62/89/34 64/91/34 63/92/34
f 63/92/35 64/91/35 100/93/35 99/94/35
f 99/94/36 100/93/36 66/95/36 65/96/36
f 62/97/37 94/98/37 68/99/37 66/100/37 100/101/37 64/102/37
f 65/96/38 66/95/38 68/103/38 67/104/38
f 67/104/39 68/103/39 94/105/39 93/106/39
f 93/107/40 61/108/40 63/109/40 99/110/40 65/111/40 67/112/40
f 69/113/41 70/114/41 72/115/41 71/116/41
f 71/116/42 72/115/42 74/117/42 73/118/42
f 73/118/43 74/117/43 76/119/43 75/120/43
f 75/120/44 76/119/44 78/121/44 77/122/44
f 72/123/37 70/124/37 80/125/37 78/126/37 76/127/37 74/128/37
f 77/122/45 78/121/45 80/129/45 79/130/45
f 79/130/46 80/129/46 70/131/46 69/132/46
f 69/133/40 71/134/40 73/135/40 75/136/40 77/137/40 79/138/40
f 81/139/47 82/140/47 84/141/47 83/142/47
f 83/142/48 84/141/48 86/143/48 85/144/48
f 85/144/49 86/143/49 88/145/49 87/146/49
f 87/146/50 88/145/50 90/147/50 89/148/50
f 84/149/37 82/150/37 92/151/37 90/152/37 88/153/37 86/154/37
f 89/148/51 90/147/51 92/155/51 91/156/51
f 91/156/52 92/155/52 82/157/52 81/158/52
f 81/159/40 83/160/40 85/161/40 87/162/40 89/163/40 91/164/40
f 93/87/39 95/165/39 96/166/39 94/88/39
f 95/165/38 97/167/38 98/168/38 96/166/38
f 97/167/36 99/94/36 100/93/36 98/168/36
f 99/94/35 101/169/35 102/170/35 100/93/35
f 96/171/37 98/172/37 100/101/37 102/173/37 104/174/37 94/98/37
f 101/169/34 103/175/34 104/176/34 102/170/34
f 103/175/33 93/106/33 94/105/33 104/176/33
f 93/107/40 103/177/40 101/178/40 99/110/40 97/179/40 95/180/40
f 105/181/53 107/182/53 108/183/53 106/184/53
f 107/182/54 109/185/54 110/186/54 108/183/54
f 109/185/55 111/187/55 112/188/55 110/186/55
f 111/187/56 113/189/56 114/190/56 112/188/56
f 108/191/37 110/192/37 112/193/37 114/194/37 116/195/37 106/196/37
f 113/189/57 115/197/57 116/198/57 114/190/57
f 115/197/58 105/199/58 106/200/58 116/198/58
f 105/201/40 115/202/40 113/203/40 111/204/40 109/205/40 107/206/40
f 117/207/59 119/208/59 120/209/59 118/210/59
f 119/208/60 121/211/60 122/212/60 120/209/60
f 121/211/61 123/213/61 124/214/61 122/212/61
f 123/213/62 125/215/62 126/216/62 124/214/62
f 120/217/37 122/218/37 124/219/37 126/220/37 128/221/37 118/222/37
f 125/215/63 127/223/63 128/224/63 126/216/63
f 127/223/64 117/225/64 118/226/64 128/224/64
f 117/227/40 127/228/40 125/229/40 123/230/40 121/231/40 119/232/40
f 161/233/35 129/234/35 130/235/35 162/236/35
f 129/234/34 131/237/34 132/238/34 130/235/34
f 131/237/33 167/239/33 168/240/33 132/238/33
f 167/239/39 133/241/39 134/242/39 168/240/39
f 130/243/37 132/244/37 168/245/37 134/246/37 136/247/37 162/248/37
f 133/241/38 135/249/38 136/250/38 134/242/38
f 135/249/36 161/251/36 162/252/36 136/250/36
f 161/253/40 135/254/40 133/255/40 167/256/40 131/257/40 129/258/40
f 137/259/56 139/260/56 140/261/56 138/262/56
f 139/260/57 141/263/57 142/264/57 140/261/57
f 141/263/58 143/265/58 144/266/58 142/264/58
f 143/265/53 145/267/53 146/268/53 144/266/53
f 140/269/37 142/270/37 144/271/37 146/272/37 148/273/37 138/274/37
f 145/267/54 147/275/54 148/276/54 146/268/54
f 147/275/55 137/277/55 138/278/55 148/276/55
f 137/279/40 147/280/40 145/281/40 143/282/40 141/283/40 139/284/40
f 149/285/62 151/286/62 152/287/62 150/288/62
f 151/286/63 153/289/63 154/290/63 152/287/63
f 153/289/64 155/291/64 156/292/64 154/290/64
f 155/291/59 157/293/59 158/294/59 156/292/59
f 152/295/37 154/296/37 156/297/37 158/298/37 160/299/37 150/300/37
f 157/293/60 159/301/60 160/302/60 158/294/60
f 159/301/61 149/303/61 150/304/61 160/302/61
f 149/305/40 159/306/40 157/307/40 155/308/40 153/309/40 151/310/40
f 161/233/36 162/236/36 164/311/36 163/312/36
f 163/312/38 164/311/38 166/313/38 165/314/38
f 165/314/39 166/313/39 168/240/39 167/239/39
f 167/239/33 168/240/33 170/315/33 169/316/33
f 164/317/37 162/248/37 172/318/37 170/319/37 168/245/37 166/320/37
f 169/316/34 170/315/34 172/321/34 171/322/34
f 171/322/35 172/321/35 162/252/35 161/251/35
f 161/253/40 163/323/40 165/324/40 167/256/40 169/325/40 171/326/40
f 173/327/44 174/328/44 176/329/44 175/330/44
f 175/330/45 176/329/45 178/331/45 177/332/45
f 177/332/46 178/331/46 180/333/46 179/334/46
f 179/334/41 180/333/41 182/335/41 181/336/41
f 176/337/37 174/338/37 184/339/37 182/340/37 180/341/37 178/342/37
f 181/336/42 182/335/42 184/343/42 183/344/42
f 183/344/43 184/343/43 174/345/43 173/346/43
f 173/347/40 175/348/40 177/349/40 179/350/40 181/351/40 183/352/40
f 185/353/50 186/354/50 188/355/50 187/356/50
f 187/356/51 188/355/51 190/357/51 189/358/51
f 189/358/52 190/357/52 192/359/52 191/360/52
f 191/360/47 192/359/47 194/361/47 193/362/47
f 188/363/37 186/364/37 196/365/37 194/366/37 192/367/37 190/368/37
f 193/362/48 194/361/48 196/369/48 195/370/48
f 195/370/49 196/369/49 186/371/49 185/372/49
f 185/373/40 187/374/40 189/375/40 191/376/40 193/377/40 195/378/40
